<?xml version="1.0" standalone="no"?>
<!DOCTYPE svg PUBLIC "-//W3C//DTD SVG 1.1//EN" "http://www.w3.org/Graphics/SVG/1.1/DTD/svg11.dtd" >
<svg>
<metadata>
Created by FontForge 20090622 at Tue Nov 13 05:03:06 2018
 By ffonts
Copyright (c) 2018 by Vladimir Nikolic. All rights reserved.
</metadata>
<defs>
<font id="Olga-Regular" horiz-adv-x="599" >
  <font-face 
    font-family="Olga"
    font-weight="400"
    font-stretch="normal"
    units-per-em="1000"
    panose-1="0 0 0 0 0 0 0 0 0 0"
    ascent="800"
    descent="-200"
    x-height="693"
    cap-height="693"
    bbox="-6 -64.0667 1061 694"
    underline-thickness="50"
    underline-position="-50"
    unicode-range="U+000D-U+007A"
  />
<missing-glyph horiz-adv-x="336" 
 />
    <glyph glyph-name=".notdef" horiz-adv-x="336" 
 />
    <glyph glyph-name="NULL" horiz-adv-x="0" 
 />
    <glyph glyph-name="NULL" horiz-adv-x="0" 
 />
    <glyph glyph-name="nonmarkingreturn" unicode="&#xd;" horiz-adv-x="336" 
 />
    <glyph glyph-name="space" unicode=" " horiz-adv-x="336" 
 />
    <glyph glyph-name="E" unicode="E" horiz-adv-x="570" 
d="M508 116v-116h-145q-72 0 -135 27.5t-110 74.5t-74 110t-27 135t27 135t74 110t110 74.5t135 27.5h145v-116h-145q-48 0 -90 -18t-73.5 -49.5t-49.5 -73.5t-18 -90t18 -90t49.5 -73.5t73.5 -49.5t90 -18h145zM508 405v-116h-308q-11 31 -11 58t11 58h308z" />
    <glyph glyph-name="F" unicode="F" horiz-adv-x="549" 
d="M516 693v-116h-282v116h282zM458 404v-116h-282v-288h-115v693h115v-289h282z" />
    <glyph glyph-name="G" unicode="G" 
d="M537 116v-116h-174q-72 0 -135 27.5t-110 74.5t-74 110t-27 135t27 135t74 110.5t110 74.5t135 27h174v-116h-174q-48 0 -90 -18t-73.5 -49.5t-49.5 -73.5t-18 -90t18 -90t49.5 -73.5t73.5 -49.5t90 -18h174zM537 289v-115h-116v115h-221q-11 31 -11 58t11 58h337v-116z
" />
    <glyph glyph-name="H" unicode="H" horiz-adv-x="665" 
d="M581 231v-231h-115v289h-289v-289h-116v405h405v289h115v-289v-116v-58zM177 694v-231h-116v231h116z" />
    <glyph glyph-name="I" unicode="I" horiz-adv-x="260" 
d="M176 693v-693h-115v693h115z" />
    <glyph glyph-name="J" unicode="J" horiz-adv-x="301" 
d="M246 693v-462q0 -48 -18 -90t-49.5 -73.5t-73.5 -49.5t-90 -18v115q24 0 44.5 9t36.5 25t25 37t9 45v462h116z" />
    <glyph glyph-name="K" unicode="K" horiz-adv-x="636" 
d="M604 694l-231 -347l231 -347h-139l-231 347l231 347h139zM176 694v-694h-115v694h115z" />
    <glyph glyph-name="L" unicode="L" horiz-adv-x="437" 
d="M431 115v-115h-254h-116v693h116v-578h254z" />
    <glyph glyph-name="M" unicode="M" horiz-adv-x="801" 
d="M745 694v-694h-115v393l-133 -318l-62 151l195 468h115zM177 694l289 -694h-125l-164 393v-393h-116v694h116z" />
    <glyph glyph-name="N" unicode="N" horiz-adv-x="696" 
d="M639 693v-589l-116 173v416h116zM176 693l463 -693h-116h-23l-324 485v-485h-115v693h115z" />
    <glyph glyph-name="O" unicode="O" horiz-adv-x="671" 
d="M640 404v-115q0 -60 -22.5 -112.5t-61.5 -92t-91.5 -62t-112.5 -22.5h-32q-60 0 -112.5 22.5t-91.5 62t-62 92t-23 112.5v115q0 60 23 112.5t62 92t91.5 62t112.5 22.5h32q60 0 112.5 -22.5t91.5 -62t61.5 -92t22.5 -112.5zM525 289v115q0 36 -13.5 67.5t-37 55.5
t-55 37.5t-67.5 13.5h-32q-36 0 -67.5 -13.5t-55 -37.5t-37 -55.5t-13.5 -67.5v-115q0 -36 13.5 -67.5t37 -55t55 -37t67.5 -13.5h32q36 0 67.5 13.5t55 37t37 55t13.5 67.5z" />
    <glyph glyph-name="P" unicode="P" horiz-adv-x="565" 
d="M304 693q48 0 90 -18t73.5 -49.5t49.5 -73.5t18 -90t-18 -90t-49.5 -73.5t-73.5 -49.5t-90 -18h-138v-231h-116v347h58h196q24 0 45 9t36.5 25t24.5 36.5t9 44.5t-9 45t-24.5 37t-36.5 25t-45 9h-254v115h116h138z" />
    <glyph glyph-name="Q" unicode="Q" horiz-adv-x="674" 
d="M641 405v-116q0 -42 -10.5 -78.5t-33.5 -72.5l-74 129q1 5 1.5 11t0.5 11v116q0 36 -13.5 67.5t-37 55t-55 37t-67.5 13.5h-32q-36 0 -67.5 -13.5t-55 -37t-37 -55t-13.5 -67.5v-116q0 -36 13.5 -67.5t37 -55t55 -37t67.5 -13.5h32q26 0 53 8l-71 125h133l92 -161
q-45 -47 -93.5 -67.5t-113.5 -20.5h-32q-60 0 -112.5 23t-91.5 62t-62 91.5t-23 112.5v116q0 60 23 112.5t62 91.5t91.5 62t112.5 23h32q60 0 112.5 -23t91.5 -62t62 -91.5t23 -112.5z" />
    <glyph glyph-name="R" unicode="R" horiz-adv-x="575" 
d="M397 249l143 -249h-134l-132 231h-108v-231h-116v347h58h131h69q24 0 45 9t37 24.5t25 36.5t9 45t-9 45t-25 37t-37 25t-45 9h-258v115h116h142q63 0 110.5 -26t77 -67.5t39.5 -92t-1 -100t-45 -92t-92 -66.5z" />
    <glyph glyph-name="S" unicode="S" horiz-adv-x="609" 
d="M547 347v-116q0 -48 -18 -90t-49.5 -73.5t-73.5 -49.5t-90 -18h-271v116h271q24 0 44.5 9t36.5 24.5t25 36.5t9 45v116h116zM547 694v-116h-271q-24 0 -45 -9t-37 -25t-25 -36.5t-9 -44.5v-116h-115v116q0 48 18 90t49.5 73.5t73.5 49.5t90 18h271z" />
    <glyph glyph-name="T" unicode="T" horiz-adv-x="538" 
d="M520 694v-116h-508v116h23h485zM324 520v-520h-115v520h115z" />
    <glyph glyph-name="U" unicode="U" horiz-adv-x="708" 
d="M637 693v-404q0 -60 -23 -112.5t-62 -92t-91.5 -62t-112.5 -22.5h-5q-60 0 -112.5 22.5t-92 62t-62 92t-22.5 112.5v404h116v-289v-115q0 -36 13.5 -67.5t37 -55t55 -37t67.5 -13.5h5q36 0 67.5 13.5t55 37t37 55t13.5 67.5v115v289h116z" />
    <glyph glyph-name="V" unicode="V" horiz-adv-x="732" 
d="M714 693l-257 -618l-63 150l195 468h125zM136 693l289 -693h-125l-289 693h125z" />
    <glyph glyph-name="W" unicode="W" horiz-adv-x="1051" 
d="M1061 693l-258 -618l-63 150l195 468h126zM483 693l289 -693h-126l-110 266l-80 -191l-62 150l79 191l-116 277h126zM714 693l-84 -202l-63 150l22 52h125zM136 693l289 -693h-125l-289 693h125z" />
    <glyph glyph-name="X" unicode="X" horiz-adv-x="560" 
d="M528 693l-150 -285l-65 124l85 161h98h32zM163 693l365 -693h-130l-118 222l-65 124l-183 347h131zM182 284l65 -124l-84 -160h-131z" />
    <glyph glyph-name="Y" unicode="Y" horiz-adv-x="548" 
d="M556 693l-173 -259l-70 104l104 155h139zM348 381v-381h-115v346l-232 347h139z" />
    <glyph glyph-name="Z" unicode="Z" horiz-adv-x="602" 
d="M552 116v-116h-465h-55v116v0v0l325 404h149l-326 -404h372zM552 694v-116h-520v116h520z" />
    <glyph glyph-name="a" unicode="a" horiz-adv-x="573" 
d="M283 693l289 -693h-390l48 116h169l-116 277l-116 -277l-48 -116h-125z" />
    <glyph glyph-name="b" unicode="b" 
d="M177 289v-174h164q36 0 61.5 25.5t25.5 61.5t-25.5 61.5t-61.5 25.5h-164zM341 693q45 0 82 -17t63.5 -45t41.5 -64t15.5 -74.5t-14 -76.5t-46.5 -69q32 -32 46.5 -70t14 -76.5t-15.5 -74.5t-41.5 -64t-63.5 -45t-82 -17h-164h-58h-58v347v57h58h58h164q36 0 61.5 25.5
t25.5 61.5t-25.5 61.5t-61.5 25.5h-280v115h58h58h164z" />
    <glyph glyph-name="c" unicode="c" horiz-adv-x="554" 
d="M504 115v-115h-140q-72 0 -135 27t-110.5 74t-74.5 110t-27 135t27 135t74.5 110.5t110.5 74.5t135 27h140v-116h-140q-48 0 -90.5 -18t-74 -49.5t-49.5 -73.5t-18 -90t18 -90t49.5 -73.5t74 -49.5t90.5 -18h140z" />
    <glyph glyph-name="d" unicode="d" horiz-adv-x="637" 
d="M264 694q72 0 135 -27t110 -74.5t74.5 -110.5t27.5 -135t-27.5 -135t-74.5 -110t-110 -74.5t-135 -27.5h-145h-58v520h115v-404h88q48 0 90 18t73.5 49.5t49.5 73.5t18 90t-18 90t-49.5 73.5t-73.5 49.5t-90 18h-145h-58v116h58h145z" />
    <glyph glyph-name="e" unicode="e" horiz-adv-x="570" 
d="M508 116v-116h-145q-72 0 -135 27.5t-110 74.5t-74 110t-27 135t27 135t74 110t110 74.5t135 27.5h145v-116h-145q-48 0 -90 -18t-73.5 -49.5t-49.5 -73.5t-18 -90t18 -90t49.5 -73.5t73.5 -49.5t90 -18h145zM508 405v-116h-308q-11 31 -11 58t11 58h308z" />
    <glyph glyph-name="f" unicode="f" horiz-adv-x="549" 
d="M516 693v-116h-282v116h282zM458 404v-116h-282v-288h-115v693h115v-289h282z" />
    <glyph glyph-name="g" unicode="g" 
d="M537 116v-116h-174q-72 0 -135 27.5t-110 74.5t-74 110t-27 135t27 135t74 110.5t110 74.5t135 27h174v-116h-174q-48 0 -90 -18t-73.5 -49.5t-49.5 -73.5t-18 -90t18 -90t49.5 -73.5t73.5 -49.5t90 -18h174zM537 289v-115h-116v115h-221q-11 31 -11 58t11 58h337v-116z
" />
    <glyph glyph-name="h" unicode="h" horiz-adv-x="665" 
d="M581 231v-231h-115v289h-289v-289h-116v405h405v289h115v-289v-116v-58zM177 694v-231h-116v231h116z" />
    <glyph glyph-name="i" unicode="i" horiz-adv-x="260" 
d="M176 693v-693h-115v693h115z" />
    <glyph glyph-name="j" unicode="j" horiz-adv-x="301" 
d="M246 693v-462q0 -48 -18 -90t-49.5 -73.5t-73.5 -49.5t-90 -18v115q24 0 44.5 9t36.5 25t25 37t9 45v462h116z" />
    <glyph glyph-name="k" unicode="k" horiz-adv-x="636" 
d="M604 694l-231 -347l231 -347h-139l-231 347l231 347h139zM176 694v-694h-115v694h115z" />
    <glyph glyph-name="l" unicode="l" horiz-adv-x="437" 
d="M431 115v-115h-254h-116v693h116v-578h254z" />
    <glyph glyph-name="m" unicode="m" horiz-adv-x="801" 
d="M745 694v-694h-115v393l-133 -318l-62 151l195 468h115zM177 694l289 -694h-125l-164 393v-393h-116v694h116z" />
    <glyph glyph-name="n" unicode="n" horiz-adv-x="696" 
d="M639 693v-589l-116 173v416h116zM176 693l463 -693h-116h-23l-324 485v-485h-115v693h115z" />
    <glyph glyph-name="o" unicode="o" horiz-adv-x="671" 
d="M640 404v-115q0 -60 -22.5 -112.5t-61.5 -92t-91.5 -62t-112.5 -22.5h-32q-60 0 -112.5 22.5t-91.5 62t-62 92t-23 112.5v115q0 60 23 112.5t62 92t91.5 62t112.5 22.5h32q60 0 112.5 -22.5t91.5 -62t61.5 -92t22.5 -112.5zM525 289v115q0 36 -13.5 67.5t-37 55.5
t-55 37.5t-67.5 13.5h-32q-36 0 -67.5 -13.5t-55 -37.5t-37 -55.5t-13.5 -67.5v-115q0 -36 13.5 -67.5t37 -55t55 -37t67.5 -13.5h32q36 0 67.5 13.5t55 37t37 55t13.5 67.5z" />
    <glyph glyph-name="p" unicode="p" horiz-adv-x="565" 
d="M304 693q48 0 90 -18t73.5 -49.5t49.5 -73.5t18 -90t-18 -90t-49.5 -73.5t-73.5 -49.5t-90 -18h-138v-231h-116v347h58h196q24 0 45 9t36.5 25t24.5 36.5t9 44.5t-9 45t-24.5 37t-36.5 25t-45 9h-254v115h116h138z" />
    <glyph glyph-name="q" unicode="q" horiz-adv-x="674" 
d="M641 405v-116q0 -42 -10.5 -78.5t-33.5 -72.5l-74 129q1 5 1.5 11t0.5 11v116q0 36 -13.5 67.5t-37 55t-55 37t-67.5 13.5h-32q-36 0 -67.5 -13.5t-55 -37t-37 -55t-13.5 -67.5v-116q0 -36 13.5 -67.5t37 -55t55 -37t67.5 -13.5h32q26 0 53 8l-71 125h133l92 -161
q-45 -47 -93.5 -67.5t-113.5 -20.5h-32q-60 0 -112.5 23t-91.5 62t-62 91.5t-23 112.5v116q0 60 23 112.5t62 91.5t91.5 62t112.5 23h32q60 0 112.5 -23t91.5 -62t62 -91.5t23 -112.5z" />
    <glyph glyph-name="r" unicode="r" horiz-adv-x="575" 
d="M397 249l143 -249h-134l-132 231h-108v-231h-116v347h58h131h69q24 0 45 9t37 24.5t25 36.5t9 45t-9 45t-25 37t-37 25t-45 9h-258v115h116h142q63 0 110.5 -26t77 -67.5t39.5 -92t-1 -100t-45 -92t-92 -66.5z" />
    <glyph glyph-name="s" unicode="s" horiz-adv-x="609" 
d="M547 347v-116q0 -48 -18 -90t-49.5 -73.5t-73.5 -49.5t-90 -18h-271v116h271q24 0 44.5 9t36.5 24.5t25 36.5t9 45v116h116zM547 694v-116h-271q-24 0 -45 -9t-37 -25t-25 -36.5t-9 -44.5v-116h-115v116q0 48 18 90t49.5 73.5t73.5 49.5t90 18h271z" />
    <glyph glyph-name="t" unicode="t" horiz-adv-x="538" 
d="M520 694v-116h-508v116h23h485zM324 520v-520h-115v520h115z" />
    <glyph glyph-name="u" unicode="u" horiz-adv-x="708" 
d="M637 693v-404q0 -60 -23 -112.5t-62 -92t-91.5 -62t-112.5 -22.5h-5q-60 0 -112.5 22.5t-92 62t-62 92t-22.5 112.5v404h116v-289v-115q0 -36 13.5 -67.5t37 -55t55 -37t67.5 -13.5h5q36 0 67.5 13.5t55 37t37 55t13.5 67.5v115v289h116z" />
    <glyph glyph-name="v" unicode="v" horiz-adv-x="732" 
d="M714 693l-257 -618l-63 150l195 468h125zM136 693l289 -693h-125l-289 693h125z" />
    <glyph glyph-name="w" unicode="w" horiz-adv-x="1051" 
d="M1061 693l-258 -618l-63 150l195 468h126zM483 693l289 -693h-126l-110 266l-80 -191l-62 150l79 191l-116 277h126zM714 693l-84 -202l-63 150l22 52h125zM136 693l289 -693h-125l-289 693h125z" />
    <glyph glyph-name="x" unicode="x" horiz-adv-x="560" 
d="M528 693l-150 -285l-65 124l85 161h98h32zM163 693l365 -693h-130l-118 222l-65 124l-183 347h131zM182 284l65 -124l-84 -160h-131z" />
    <glyph glyph-name="y" unicode="y" horiz-adv-x="548" 
d="M556 693l-173 -259l-70 104l104 155h139zM348 381v-381h-115v346l-232 347h139z" />
    <glyph glyph-name="z" unicode="z" horiz-adv-x="602" 
d="M552 116v-116h-465h-55v116v0v0l325 404h149l-326 -404h372zM552 694v-116h-520v116h520z" />
    <glyph glyph-name="D" unicode="D" horiz-adv-x="637" 
d="M264 694q72 0 135 -27t110 -74.5t74.5 -110.5t27.5 -135t-27.5 -135t-74.5 -110t-110 -74.5t-135 -27.5h-145h-58v520h115v-404h88q48 0 90 18t73.5 49.5t49.5 73.5t18 90t-18 90t-49.5 73.5t-73.5 49.5t-90 18h-145h-58v116h58h145z" />
    <glyph glyph-name="exclam" unicode="!" horiz-adv-x="273" 
d="M190 693v-405h-116v405h116zM132 115q24 0 41 -17t17 -41t-17 -40.5t-41 -16.5t-41 16.5t-17 40.5t17 41t41 17z" />
    <glyph glyph-name="comma" unicode="," horiz-adv-x="149" 
d="M17 56q0 23 10.5 37t26 18.5t32 1.5t29 -13.5t17.5 -27t-4 -38.5q-3 -7 -8 -14l-74 -76q-11 -11 -20 -7t-9 19v100z" />
    <glyph glyph-name="zero" unicode="0" horiz-adv-x="671" 
d="M640 404v-115q0 -60 -22.5 -112.5t-61.5 -92t-91.5 -62t-112.5 -22.5h-32q-60 0 -112.5 22.5t-91.5 62t-62 92t-23 112.5v115q0 60 23 112.5t62 92t91.5 62t112.5 22.5h32q60 0 112.5 -22.5t91.5 -62t61.5 -92t22.5 -112.5zM525 289v115q0 36 -13.5 67.5t-37 55.5
t-55 37.5t-67.5 13.5h-32q-36 0 -67.5 -13.5t-55 -37.5t-37 -55.5t-13.5 -67.5v-115q0 -36 13.5 -67.5t37 -55t55 -37t67.5 -13.5h32q36 0 67.5 13.5t55 37t37 55t13.5 67.5z" />
    <glyph glyph-name="one" unicode="1" horiz-adv-x="319" 
d="M254 694v-694h-116v578h-94v116h94h116z" />
    <glyph glyph-name="two" unicode="2" horiz-adv-x="574" 
d="M524 115v-115h-289h-173v231v115h115v-115v-116h58h289zM524 462v-116h-116v116q0 24 -9 45t-24.5 36.5t-36.5 24.5t-45 9h-231v116h231q48 0 90 -18t73.5 -49.5t49.5 -73.5t18 -90z" />
    <glyph glyph-name="three" unicode="3" horiz-adv-x="561" 
d="M513 462v-231q0 -48 -18.5 -90t-50 -73.5t-73.5 -49.5t-90 -18h-231v116h231q24 0 45 9t37 24.5t25 36.5t9 45v231q0 24 -9 45t-25 37t-37 25t-45 9h-231v115h231q48 0 90 -18t73.5 -49.5t50 -73.5t18.5 -90zM339 405v-116h-289v116h289z" />
    <glyph glyph-name="four" unicode="4" horiz-adv-x="554" 
d="M509 693v-693h-116v515l-194 -227h137v-115h-289v115l346 405h116z" />
    <glyph glyph-name="five" unicode="5" horiz-adv-x="569" 
d="M522 346v-115q0 -48 -18 -90t-49.5 -73.5t-73.5 -49.5t-90 -18h-231v115h231q24 0 45 9t37 25t25 37t9 45v115h115zM522 693v-116h-289h-57v-115v-116h-116v116v231h173h289z" />
    <glyph glyph-name="six" unicode="6" horiz-adv-x="614" 
d="M395 404q36 0 67.5 -13.5t55.5 -37t37.5 -55t13.5 -67.5q0 -48 -18 -90t-49.5 -73.5t-73.5 -49.5t-90 -18h-58q-48 0 -90 18t-73.5 49.5t-49.5 73.5t-18 90v231q0 48 18 90t49.5 73.5t73.5 49.5t90 18h115h58v-115h-58h-115q-24 0 -45 -9t-37 -25t-25 -37t-9 -45v-231
q0 -24 9 -45t25 -37t37 -25t45 -9h58q24 0 44.5 9t36.5 25t25 37t9 45t-17 41t-41 17h-57h-58h-58v115h58h58h57z" />
    <glyph glyph-name="seven" unicode="7" horiz-adv-x="537" 
d="M502 693v-116h-462v116h462zM469 520l-296 -520h-133l296 520h133z" />
    <glyph glyph-name="eight" unicode="8" horiz-adv-x="622" 
d="M569 462q0 -35 -11 -62.5t-34 -53.5q23 -26 34 -53t11 -62q0 -48 -18.5 -90t-50 -73.5t-73.5 -49.5t-90 -18h-57q-48 0 -90.5 18t-74 49.5t-49.5 73.5t-18 90q0 35 11 62t34 53q-23 26 -34 53.5t-11 62.5q0 48 18 90t49.5 73.5t74 49.5t90.5 18h57q48 0 90 -18
t73.5 -49.5t50 -73.5t18.5 -90zM395 404q24 0 41 17t17 41t-9 45t-25 36.5t-37 24.5t-45 9h-57q-24 0 -45 -9t-37 -24.5t-25 -36.5t-9 -45t17 -41t41 -17h58h57h58zM453 231q0 24 -17 40.5t-41 16.5h-58h-57h-58q-24 0 -41 -16.5t-17 -40.5t9 -45t25 -37t37 -25t45 -9h57
q24 0 45 9t37 25t25 37t9 45z" />
    <glyph glyph-name="nine" unicode="9" horiz-adv-x="603" 
d="M553 462v-231q0 -48 -18 -90t-49.5 -73.5t-73.5 -49.5t-90 -18h-115h-58v115h58h115q24 0 45 9t37 25t25 37t9 45v231q0 24 -9 45t-25 37t-37 25t-45 9h-57q-24 0 -45 -9t-37 -25t-25 -37t-9 -45t17 -41t41 -17h58h57h58v-115h-58h-57h-58q-36 0 -67.5 13.5t-55.5 37
t-37.5 55t-13.5 67.5q0 48 18 90t49.5 73.5t74 49.5t90.5 18h57q48 0 90 -18t73.5 -49.5t49.5 -73.5t18 -90z" />
    <glyph glyph-name="colon" unicode=":" horiz-adv-x="189" 
d="M91 115q24 0 41 -16.5t17 -40.5t-17 -41t-41 -17q-23 0 -40 17t-17 41t17 40.5t40 16.5zM91 694q24 0 41 -16.5t17 -40.5t-17 -41t-41 -17q-23 0 -40 17t-17 41t17 40.5t40 16.5z" />
    <glyph glyph-name="semicolon" unicode=";" horiz-adv-x="195" 
d="M94 694q24 0 41 -16.5t17 -40.5t-17 -41t-41 -17q-23 0 -40 17t-17 41t17 40.5t40 16.5zM37 56q0 23 10.5 37t26 18.5t32 1.5t29 -13.5t17.5 -27t-4 -38.5q-3 -7 -8 -14l-74 -76q-11 -11 -20 -7t-9 19v100z" />
    <glyph glyph-name="question" unicode="?" horiz-adv-x="548" 
d="M497 462v-173h-116v173q0 24 -9 45t-25 37t-37 25t-45 9h-231v115h231q48 0 90 -18t73.5 -49.5t50 -73.5t18.5 -90zM265 116q24 0 41 -17t17 -41t-17 -41t-41 -17t-40.5 17t-16.5 41t16.5 41t40.5 17z" />
    <glyph glyph-name="period" unicode="." horiz-adv-x="151" 
d="M76 115q24 0 41 -16.5t17 -40.5t-17 -41t-41 -17q-23 0 -40 17t-17 41t17 40.5t40 16.5z" />
    <glyph glyph-name="B" unicode="B" 
d="M177 289v-174h164q36 0 61.5 25.5t25.5 61.5t-25.5 61.5t-61.5 25.5h-164zM341 693q45 0 82 -17t63.5 -45t41.5 -64t15.5 -74.5t-14 -76.5t-46.5 -69q32 -32 46.5 -70t14 -76.5t-15.5 -74.5t-41.5 -64t-63.5 -45t-82 -17h-164h-58h-58v347v57h58h58h164q36 0 61.5 25.5
t25.5 61.5t-25.5 61.5t-61.5 25.5h-280v115h58h58h164z" />
    <glyph glyph-name="C" unicode="C" horiz-adv-x="554" 
d="M504 115v-115h-140q-72 0 -135 27t-110.5 74t-74.5 110t-27 135t27 135t74.5 110.5t110.5 74.5t135 27h140v-116h-140q-48 0 -90.5 -18t-74 -49.5t-49.5 -73.5t-18 -90t18 -90t49.5 -73.5t74 -49.5t90.5 -18h140z" />
    <glyph glyph-name="A" unicode="A" horiz-adv-x="573" 
d="M283 693l289 -693h-390l48 116h169l-116 277l-116 -277l-48 -116h-125z" />
  </font>
</defs>
</svg>
